<svg xmlns="http://www.w3.org/2000/svg" viewBox="0 0 399.09 435.63"><defs><style>.cls-1{fill:#fbb040;}.cls-2{fill:#fff;}.cls-3{fill:#414042;}.cls-4{fill:#ed1c24;}.cls-5{fill:#f26522;}</style></defs><g id="Layer_1" data-name="Layer 1"><path class="cls-1" d="M368.13,153.08C373,127.41,382.92,57,351.68,29.69c-22.47-22.46-64.23,23-79.74,41.62a222.86,222.86,0,0,0-72.26-11.66,223.87,223.87,0,0,0-68.79,10.51C117,53.16,72.77,3,49.4,26.41,18.22,53.7,28,123.86,32.92,149.65a147,147,0,0,0-15.6,67c0,94.7,31.06,203.26,182.36,203.26S382.05,311.38,382.05,216.68A147.53,147.53,0,0,0,368.13,153.08Z"/><path d="M64.06,20.31c23.93,0,55.52,36,66.83,49.85a223.87,223.87,0,0,1,68.79-10.51,222.86,222.86,0,0,1,72.26,11.66c12.55-15.1,42.29-47.72,65.08-47.72a20,20,0,0,1,14.66,6.1C382.92,57,373,127.41,368.13,153.08a147.53,147.53,0,0,1,13.92,63.6c0,94.7-31.07,203.26-182.37,203.26S17.32,311.38,17.32,216.68a147,147,0,0,1,15.6-67C28,123.86,18.22,53.7,49.4,26.41a20,20,0,0,1,14.66-6.1m0-18h0A38,38,0,0,0,37.12,13.24C20.08,28.44,10.83,53.57,9.65,88c-.78,22.64,2.12,45,4.52,59.12A165.52,165.52,0,0,0-.68,216.68C-.68,278,12,327.55,36.91,364c33.59,49.07,88.35,73.95,162.77,73.95S328.87,413.06,362.46,364c24.94-36.44,37.59-86,37.59-147.31a166.14,166.14,0,0,0-13.22-65.9c2.42-14.06,5.37-36.58,4.61-59.38C390.27,56.92,381,31.74,364,16.52A37.94,37.94,0,0,0,337,5.59c-14.47,0-30.18,7.35-48,22.46a244.19,244.19,0,0,0-23,22.56,250.48,250.48,0,0,0-129-1,256.66,256.66,0,0,0-23-23.14c-18.64-16.25-35-24.15-50-24.15Z"/><path class="cls-2" d="M363.46,248.47c-42.63,6.5-78-71.53-91.76-53.47s-42.63,14.45-52.56,2.17-47.15-11.56-56.48-3.6-33.3,17.33-54.25,2.88S70.11,226.07,53.5,239.8C46,246,31.55,244.08,18,240.12c5.11,91.77,42.55,179.82,181.71,179.82,137.05,0,175.45-84.66,181.46-175.62A109,109,0,0,1,363.46,248.47Z"/><path d="M185.28,263.2a5,5,0,0,1-3.55-1.47,5.53,5.53,0,0,1-1.47-4.42c-.64-13-6.87-17.15-6.93-17.18a5,5,0,0,1,2.5-9.33h15.22a5,5,0,0,1,1.74,9.68c-1.21,1.73-2.48,8.31-2.53,16.62v.16a5.5,5.5,0,0,1-1.43,4.44,5,5,0,0,1-3.55,1.5Z"/><path class="cls-3" d="M213.28,221.73c0,10.78-11.64,26.74-26,26.74s-26-16-26-26.74,11.65-15.17,26-15.17S213.28,211,213.28,221.73Z"/><path d="M187.27,251c-16.27,0-28.51-17.74-28.51-29.24,0-11.23,10.39-17.67,28.51-17.67s28.51,6.44,28.51,17.67C215.78,233.23,203.54,251,187.27,251Zm0-41.91c-7.07,0-23.51,1.24-23.51,12.67,0,9.57,10.53,24.24,23.51,24.24s23.51-14.67,23.51-24.24C210.78,210.3,194.34,209.06,187.27,209.06Z"/><path d="M126.37,259.49c6.14-10.48,28.9,19.51,54.19,0,0,0,40.46,18.06,65.74,0,0,0,9.4-1.45,5.78,8.67s-23.84,26-35.4,28.18c0,0-4.33,24.56-31.79,23.12s-30.35-24.57-30.35-24.57S120.22,270,126.37,259.49Z"/><path d="M187.19,322c-.79,0-1.6,0-2.43-.07-25.62-1.34-31.42-20.71-32.49-25.62-7.48-5.52-34.73-26.73-28.06-38.11a6.86,6.86,0,0,1,6.22-3.52c3.15,0,6.88,1.62,11.19,3.51,5.66,2.47,12.7,5.54,20.17,5.54A27.5,27.5,0,0,0,179,257.51l1.18-.91,1.36.61c.18.07,17.76,7.81,36.45,7.81,10.78,0,19.81-2.55,26.83-7.56l.49-.35.58-.09a10.29,10.29,0,0,1,1.53-.1c3,0,5.38,1.06,6.73,3,1.55,2.19,1.63,5.25.26,9.1-3.68,10.29-23.05,26.08-35.71,29.43C217.14,304.06,210.23,322,187.19,322ZM130.43,259.7a1.89,1.89,0,0,0-1.91,1.05c-3.4,5.82,14.39,22.6,27.49,32.12l.88.64.14,1.07c.11.85,3.05,21.07,28,22.38.74,0,1.46.06,2.17.06,22.92,0,26.87-20.26,27-21.12l.31-1.7,1.69-.32c10.83-2,30.25-17.42,33.51-26.56.76-2.13.89-3.79.36-4.54s-2.16-.86-2.64-.86h-.26c-7.8,5.38-17.61,8.1-29.17,8.1-16.92,0-32.49-5.79-37.12-7.67a32.37,32.37,0,0,1-19.11,6.4c-8.52,0-16.09-3.31-22.17-6C135.82,261.13,132.54,259.7,130.43,259.7Z"/><path class="cls-4" d="M218.17,267.5a71.12,71.12,0,0,1-33.28-8c-7,5.44-18.72,7.84-25.63,8.48-2.52,15-3.17,50,22.74,50C216.44,318,217.28,280.18,218.17,267.5Z"/><path d="M182,320.51h0c-7.48,0-13.53-2.67-18-7.93-12-14.15-7.75-41.9-7.23-45l.32-1.9,1.92-.18c7.34-.68,18.11-3.17,24.33-8l1.34-1,1.45.85A69.26,69.26,0,0,0,218,265h2.83l-.19,2.68c0,.55-.07,1.15-.12,1.8C219.65,283.43,217.27,320.51,182,320.51Zm-20.57-50.27c-1.52,10.88-1.67,29.59,6.4,39.11,3.5,4.15,8.14,6.16,14.16,6.16v0c30,0,32.57-31.27,33.49-45.55a74.75,74.75,0,0,1-30.41-7.53C177.31,267.71,166.28,269.63,161.44,270.24Z"/><path d="M187.81,301.77a5,5,0,0,1-3.09-1.07c-4.58-3.61-5.95-10.86-4.31-22.82a118.48,118.48,0,0,1,3.05-14.69,5,5,0,0,1,9.61,2.75c-3.63,12.76-4.16,25.15-2.16,26.9a5,5,0,0,1-3.1,8.93Z"/><path d="M210.6,229.54c-1.43,3.08-7,3.54-12.37,1s-8.63-7-7.2-10.11,7-3.54,12.37-1S212,226.46,210.6,229.54Z"/><path d="M205,234.69a18.75,18.75,0,0,1-7.8-1.85,18.2,18.2,0,0,1-7.15-5.66c-1.88-2.63-2.34-5.46-1.27-7.77,1.21-2.6,4.08-4.09,7.88-4.09a19,19,0,0,1,7.81,1.84c6.87,3.19,10.49,9,8.41,13.43C211.66,233.2,208.78,234.69,205,234.69Zm-8.34-14.37c-1.69,0-3,.47-3.34,1.2s0,1.67.8,2.76a13.45,13.45,0,0,0,5.18,4,14,14,0,0,0,5.7,1.38c1.7,0,3-.47,3.35-1.2.61-1.32-1.47-4.69-6-6.79A14,14,0,0,0,196.64,220.32Z"/><path d="M177.45,220.81c1.32,3.13-.95,7.07-5.07,8.81s-8.53.61-9.85-2.52,1-7.06,5.08-8.8S176.13,217.68,177.45,220.81Z"/><path d="M168.46,232.93c-3.81,0-7-1.86-8.23-4.85a8,8,0,0,1,.63-7.15,12,12,0,0,1,5.77-4.93,12.66,12.66,0,0,1,4.9-1c3.81,0,7,1.86,8.22,4.86,1.86,4.39-1,9.81-6.4,12.08A12.74,12.74,0,0,1,168.46,232.93Zm3.07-13a7.77,7.77,0,0,0-2.95.62,7,7,0,0,0-3.38,2.83,3.12,3.12,0,0,0-.36,2.7c.46,1.11,1.85,1.8,3.62,1.8a7.62,7.62,0,0,0,2.95-.62c2.74-1.16,4.49-3.74,3.74-5.53C174.68,220.67,173.29,220,171.53,220Z"/><ellipse class="cls-2" cx="144.17" cy="127.17" rx="15.9" ry="24.2" transform="translate(-33.86 199.73) rotate(-63.59)"/><ellipse class="cls-2" cx="234.94" cy="127.17" rx="24.2" ry="15.9" transform="translate(-28.28 81.53) rotate(-18.59)"/><path class="cls-5" d="M72.28,119.86s18.06-29,27.46-30c0,0-26-32.83-30.35-40.78C69.39,49.05,36.88,61.34,72.28,119.86Z"/><path class="cls-5" d="M329.81,124.55s-18.07-29-27.46-30c0,0,26-32.84,30.35-40.78C332.7,53.75,365.21,66,329.81,124.55Z"/><path class="cls-4" d="M160.56,163.94a16.24,16.24,0,0,0-22.64-.3,16.22,16.22,0,0,0-22.83,23l.2.21s17.72,21,22.63,21,22.64-21,22.64-21l.2-.21A16.23,16.23,0,0,0,160.56,163.94Z"/><path d="M137.92,212.85c-1.78,0-7.21,0-26.35-22.61l0-.06a21.34,21.34,0,0,1,.23-29.78,21.26,21.26,0,0,1,26.17-3.05,21.23,21.23,0,0,1,26.44,32.8l-.09.09C145.14,212.85,139.71,212.85,137.92,212.85Zm-11.16-48.66a11.17,11.17,0,0,0-7.93,3.28,11.28,11.28,0,0,0-.14,15.74l.42.45c6.64,7.86,15.33,16.82,18.81,18.92,3.48-2.1,12.18-11.06,18.82-18.92l.42-.45a11.28,11.28,0,0,0-.14-15.73,11.23,11.23,0,0,0-15.66-.22l-3.44,3.27-3.44-3.27A11.17,11.17,0,0,0,126.76,164.19Z"/><path class="cls-4" d="M267,163.94a16.24,16.24,0,0,0-22.64-.3,16.22,16.22,0,0,0-22.83,23l.2.21s17.72,21,22.63,21,22.64-21,22.64-21l.2-.21A16.23,16.23,0,0,0,267,163.94Z"/><path d="M244.36,212.85c-1.78,0-7.21,0-26.35-22.61l0-.06a21.34,21.34,0,0,1,.23-29.78,21.26,21.26,0,0,1,26.17-3.05,21.23,21.23,0,0,1,26.44,32.8l-.08.09C251.58,212.85,246.15,212.85,244.36,212.85ZM233.2,164.19a11.17,11.17,0,0,0-7.93,3.28,11.28,11.28,0,0,0-.14,15.74l.42.45c6.64,7.86,15.33,16.82,18.81,18.92,3.49-2.1,12.18-11.06,18.82-18.92l.43-.47a11.26,11.26,0,0,0-.15-15.71,11.22,11.22,0,0,0-15.66-.21l-3.44,3.26-3.44-3.27A11.17,11.17,0,0,0,233.2,164.19Z"/></g></svg>