<svg xmlns="http://www.w3.org/2000/svg" viewBox="0 0 403.48 435.63"><defs><style>.cls-1{fill:#fbb040;}.cls-2{fill:#fff;}.cls-3{fill:#414042;}.cls-4{fill:#f26522;}</style></defs><g id="Layer_1" data-name="Layer 1"><path class="cls-1" d="M368.81,153.08c4.87-25.67,14.78-96.05-16.46-123.39-22.46-22.46-64.23,23-79.73,41.62a222.9,222.9,0,0,0-72.26-11.66,224,224,0,0,0-68.8,10.51C117.72,53.16,73.45,3,50.08,26.41,18.9,53.7,28.71,123.86,33.6,149.65a147,147,0,0,0-15.6,67c0,94.7,31.06,203.26,182.36,203.26S382.72,311.38,382.72,216.68A147.53,147.53,0,0,0,368.81,153.08Z"/><path d="M64.73,20.31c23.94,0,55.53,36,66.83,49.85a224,224,0,0,1,68.8-10.51,222.9,222.9,0,0,1,72.26,11.66c12.55-15.1,42.28-47.72,65.08-47.72a20,20,0,0,1,14.65,6.1c31.24,27.33,21.33,97.72,16.46,123.39a147.53,147.53,0,0,1,13.91,63.6c0,94.7-31.06,203.26-182.36,203.26S18,311.38,18,216.68a147,147,0,0,1,15.6-67C28.71,123.86,18.9,53.7,50.08,26.41a20,20,0,0,1,14.65-6.1m0-18h0A38,38,0,0,0,37.8,13.24C20.75,28.44,11.51,53.57,10.33,88c-.79,22.64,2.12,45,4.52,59.12A165.37,165.37,0,0,0,0,216.68C0,278,12.65,327.55,37.59,364c33.59,49.07,88.35,73.95,162.77,73.95S329.55,413.06,363.13,364c24.95-36.44,37.59-86,37.59-147.31a166.13,166.13,0,0,0-13.21-65.9c2.41-14.06,5.37-36.58,4.6-59.38C391,56.92,381.7,31.73,364.63,16.52A38,38,0,0,0,337.7,5.59c-14.47,0-30.18,7.35-48,22.46a244.19,244.19,0,0,0-23,22.56,250.48,250.48,0,0,0-129-1,255.56,255.56,0,0,0-23-23.14c-18.63-16.25-35-24.15-50-24.15Z"/><path class="cls-2" d="M364.13,248.47c-42.63,6.5-78-71.53-91.76-53.47s-42.63,14.45-52.56,2.17-47.14-11.56-56.48-3.6S130,210.9,109.08,196.45,70.79,226.07,54.17,239.8c-7.51,6.2-21.94,4.28-35.52.32,5.11,91.77,42.55,179.82,181.71,179.82,137.05,0,175.44-84.66,181.46-175.62A109.42,109.42,0,0,1,364.13,248.47Z"/><path d="M185,268.2a6,6,0,0,1-4.25-1.77,6.46,6.46,0,0,1-1.76-5.09c-.59-11.81-5.8-15.88-6.5-16.38a5.82,5.82,0,0,1-2.92-6.63,6.1,6.1,0,0,1,6-4.53h15.23a6,6,0,0,1,2.44,11.48c-1.09,1.95-2.19,8.19-2.23,15.8h0c0,.05,0,.1,0,.16a6.48,6.48,0,0,1-1.72,5.15,6,6,0,0,1-4.26,1.8Z"/><path class="cls-3" d="M211,221.73c0,10.78-11.65,26.74-26,26.74s-26-16-26-26.74,11.64-15.17,26-15.17S211,211,211,221.73Z"/><path d="M185,251c-16.27,0-28.51-17.74-28.51-29.24,0-11.23,10.39-17.67,28.51-17.67s28.51,6.44,28.51,17.67C213.46,233.23,201.22,251,185,251Zm0-41.91c-7.07,0-23.51,1.24-23.51,12.67C161.44,231.3,172,246,185,246s23.51-14.67,23.51-24.24C208.46,210.3,192,209.06,185,209.06Z"/><path d="M208.27,229.54c-1.42,3.08-7,3.54-12.37,1s-8.62-7-7.2-10.11,7-3.54,12.37-1S209.7,226.46,208.27,229.54Z"/><path d="M202.66,234.69a18.83,18.83,0,0,1-7.81-1.85,18.09,18.09,0,0,1-7.14-5.66c-1.88-2.63-2.34-5.46-1.27-7.77,1.2-2.6,4.08-4.09,7.88-4.09a18.73,18.73,0,0,1,7.8,1.84c6.87,3.19,10.49,9,8.42,13.43C209.33,233.19,206.46,234.69,202.66,234.69Zm-8.34-14.37c-1.7,0-3,.47-3.35,1.2s0,1.67.81,2.76a13.38,13.38,0,0,0,5.18,4,14,14,0,0,0,5.7,1.38c1.69,0,3-.47,3.35-1.2.6-1.32-1.47-4.7-6-6.79A14,14,0,0,0,194.32,220.32Z"/><path d="M175.13,220.81c1.32,3.13-.95,7.07-5.07,8.81s-8.53.61-9.85-2.52.95-7.06,5.07-8.8S173.81,217.68,175.13,220.81Z"/><path d="M166.14,232.93c-3.82,0-7-1.86-8.23-4.85-1.86-4.39,1-9.81,6.4-12.09a12.74,12.74,0,0,1,4.89-1c3.81,0,7,1.86,8.23,4.86,1.85,4.39-1,9.81-6.4,12.08A12.78,12.78,0,0,1,166.14,232.93Zm3.06-13a7.85,7.85,0,0,0-2.95.62c-2.74,1.16-4.49,3.75-3.74,5.53.47,1.11,1.86,1.8,3.63,1.8a7.57,7.57,0,0,0,2.94-.62c2.75-1.16,4.5-3.74,3.74-5.53C172.36,220.67,171,220,169.2,220Z"/><ellipse class="cls-2" cx="144.85" cy="140.81" rx="15.9" ry="24.2" transform="translate(-45.7 207.91) rotate(-63.59)"/><ellipse class="cls-2" cx="240.48" cy="140.81" rx="24.2" ry="15.9" transform="translate(-37.53 121.67) rotate(-26.41)"/><path class="cls-4" d="M73,119.86s18.06-29,27.45-30c0,0-26-32.83-30.34-40.78C70.07,49.05,37.55,61.34,73,119.86Z"/><path class="cls-4" d="M330.48,124.55s-18.06-29-27.45-30c0,0,26-32.84,30.34-40.78C333.37,53.75,365.89,66,330.48,124.55Z"/><path d="M167.66,185q-.3,0-.6,0L99.82,179.2A7,7,0,1,1,101,165.25L168.25,171a7,7,0,0,1-.59,14Z"/><path d="M214.13,185.85a7,7,0,0,1-.59-14l67.25-5.75a7,7,0,0,1,1.19,14l-67.24,5.75Z"/><path d="M151.32,281.32a7,7,0,0,1-.59-14L218,261.6a7,7,0,0,1,1.2,13.95l-67.25,5.74Z"/></g></svg>