<svg xmlns="http://www.w3.org/2000/svg" viewBox="0 0 403.48 441.95"><defs><style>.cls-1{fill:#fbb040;}.cls-2{fill:#fff;}.cls-3{fill:#414042;}.cls-4{fill:#f26522;}</style></defs><g id="Layer_1" data-name="Layer 1"><path class="cls-1" d="M371,151.15c4.87-25.67,14.79-96.05-16.45-123.39-22.47-22.46-64.23,23-79.74,41.62a222.84,222.84,0,0,0-72.25-11.66,223.88,223.88,0,0,0-68.8,10.51c-13.85-17-58.12-67.12-81.49-43.75C21.09,51.77,30.91,121.93,35.79,147.72a147,147,0,0,0-15.6,67C20.19,309.45,51.26,418,202.56,418S384.92,309.45,384.92,214.75A147.57,147.57,0,0,0,371,151.15Z"/><path d="M66.93,18.38c23.93,0,55.52,36,66.83,49.85a223.88,223.88,0,0,1,68.8-10.51,222.84,222.84,0,0,1,72.25,11.66c12.55-15.1,42.29-47.72,65.08-47.72a20,20,0,0,1,14.66,6.1C385.79,55.1,375.87,125.48,371,151.15a147.57,147.57,0,0,1,13.92,63.6c0,94.7-31.06,203.27-182.36,203.27S20.19,309.45,20.19,214.75a147,147,0,0,1,15.6-67c-4.88-25.79-14.7-95.95,16.48-123.24a20,20,0,0,1,14.66-6.1m0-18A37.92,37.92,0,0,0,40,11.32C23,26.51,13.7,51.65,12.52,86c-.78,22.64,2.12,45,4.52,59.12A165.52,165.52,0,0,0,2.19,214.75c0,61.3,12.65,110.87,37.59,147.31,33.59,49.07,88.35,74,162.78,74s129.18-24.89,162.77-74c24.94-36.44,37.59-86,37.59-147.31a166.13,166.13,0,0,0-13.21-65.9c2.41-14,5.37-36.58,4.6-59.38C393.14,55,383.9,29.81,366.83,14.59A38,38,0,0,0,339.89,3.66c-14.47,0-30.18,7.35-48,22.46a244.19,244.19,0,0,0-23,22.56,250.48,250.48,0,0,0-129-1,256.66,256.66,0,0,0-23-23.14C98.27,8.29,81.92.39,66.93.38h0Z"/><path class="cls-2" d="M366.33,246.54c-42.63,6.5-78-71.53-91.76-53.47s-42.63,14.45-52.56,2.17-47.15-11.56-56.48-3.6-33.3,17.33-54.25,2.88S73,224.14,56.37,237.87c-7.51,6.2-21.95,4.28-35.53.33C26,330,63.39,418,202.56,418,339.6,418,378,333.35,384,242.39A109,109,0,0,1,366.33,246.54Z"/><path d="M190.15,261.27a5,5,0,0,1-3.55-1.47,5.53,5.53,0,0,1-1.47-4.42c-.62-12.55-6.34-16.77-7-17.2a4.89,4.89,0,0,1-2.41-5.55,5.07,5.07,0,0,1,5-3.76h15.22a5,5,0,0,1,1.74,9.68c-1.21,1.73-2.48,8.31-2.52,16.62v.17a5.49,5.49,0,0,1-1.43,4.43,5,5,0,0,1-3.55,1.5Z"/><path class="cls-3" d="M216.15,219.8c0,10.78-11.64,26.74-26,26.74s-26-16-26-26.74,11.65-15.17,26-15.17S216.15,209,216.15,219.8Z"/><path d="M190.14,249c-16.27,0-28.51-17.74-28.51-29.24,0-11.23,10.39-17.67,28.51-17.67s28.51,6.44,28.51,17.67C218.65,231.3,206.41,249,190.14,249Zm0-41.91c-7.07,0-23.51,1.24-23.51,12.67,0,9.57,10.53,24.24,23.51,24.24s23.51-14.67,23.51-24.24C213.65,208.37,197.21,207.13,190.14,207.13Z"/><path d="M213.47,227.61c-1.43,3.08-7,3.54-12.37,1s-8.63-7-7.2-10.1,7-3.54,12.37-1S214.89,224.53,213.47,227.61Z"/><path d="M207.85,232.76a18.75,18.75,0,0,1-7.8-1.85c-6.87-3.19-10.49-9-8.42-13.43,1.21-2.6,4.08-4.09,7.88-4.09a19,19,0,0,1,7.81,1.84c6.87,3.19,10.49,9,8.41,13.43C214.53,231.27,211.65,232.76,207.85,232.76Zm-8.34-14.37c-1.69,0-3,.47-3.34,1.2-.61,1.31,1.46,4.69,6,6.79a14,14,0,0,0,5.7,1.38c1.7,0,3-.47,3.35-1.2.61-1.32-1.47-4.69-6-6.79A14,14,0,0,0,199.51,218.39Z"/><path d="M180.32,218.88c1.32,3.13-.95,7.07-5.07,8.81s-8.53.61-9.85-2.52,1-7.06,5.08-8.8S179,215.76,180.32,218.88Z"/><path d="M171.33,231c-3.81,0-7-1.86-8.23-4.85-1.85-4.39,1-9.81,6.4-12.08a12.66,12.66,0,0,1,4.9-1c3.81,0,7,1.86,8.23,4.86,1.85,4.39-1,9.81-6.41,12.08A12.74,12.74,0,0,1,171.33,231Zm3.07-12.95a7.77,7.77,0,0,0-3,.62c-2.75,1.16-4.5,3.75-3.74,5.53.46,1.11,1.85,1.8,3.62,1.8a7.58,7.58,0,0,0,2.95-.62c2.74-1.16,4.49-3.74,3.74-5.53C177.55,218.74,176.16,218.05,174.4,218.05Z"/><circle cx="248.92" cy="189.1" r="16.26" transform="translate(2.28 381.16) rotate(-75.13)"/><path d="M248.92,207.85a18.76,18.76,0,1,1,18.75-18.75A18.77,18.77,0,0,1,248.92,207.85Zm0-32.51a13.76,13.76,0,1,0,13.75,13.76A13.77,13.77,0,0,0,248.92,175.34Z"/><circle cx="139.46" cy="184.54" r="16.26" transform="translate(-64.95 292.8) rotate(-80.83)"/><path d="M139.46,203.3a18.76,18.76,0,1,1,18.75-18.76A18.78,18.78,0,0,1,139.46,203.3Zm0-32.52a13.76,13.76,0,1,0,13.75,13.76A13.78,13.78,0,0,0,139.46,170.78Z"/><ellipse class="cls-2" cx="147.04" cy="138.88" rx="15.9" ry="24.2" transform="translate(-42.75 208.8) rotate(-63.59)"/><ellipse class="cls-2" cx="234.81" cy="141.41" rx="24.2" ry="15.9" transform="matrix(0.84, -0.55, 0.55, 0.84, -39.12, 151.02)"/><path class="cls-4" d="M75.15,117.93s18.06-29,27.46-30c0,0-26-32.84-30.35-40.79C72.26,47.12,39.75,59.41,75.15,117.93Z"/><path class="cls-4" d="M332.68,122.62s-18.07-29-27.46-30c0,0,26-32.83,30.35-40.78C335.57,51.82,368.08,64.1,332.68,122.62Z"/><circle class="cls-2" cx="147.04" cy="176.45" r="5.19"/><path class="cls-2" d="M261,179.34a4.41,4.41,0,1,1-4.4-4.4A4.4,4.4,0,0,1,261,179.34Z"/><path d="M230.38,292.69a7.45,7.45,0,0,1-5.43-2.32C213,277.86,200.62,271.67,188.13,272c-19.69.5-34,16.91-34.19,17.08a7.5,7.5,0,0,1-11.41-9.73c.75-.88,18.64-21.59,45.05-22.34,17-.48,33.2,7.26,48.22,23a7.49,7.49,0,0,1-5.42,12.67Z"/></g></svg>