<svg xmlns="http://www.w3.org/2000/svg" viewBox="0 0 401.04 435.63"><defs><style>.cls-1{fill:#fbb040;}.cls-2{fill:#fff;}.cls-3{fill:#414042;}.cls-4{fill:#f26522;}.cls-5{fill:#ff6f8f;}</style></defs><g id="Layer_1" data-name="Layer 1"><path class="cls-1" d="M368.81,150.77c4.87-25.67,14.78-96.06-16.46-123.39-22.46-22.47-64.23,23-79.73,41.62a222.9,222.9,0,0,0-72.26-11.66,223.93,223.93,0,0,0-68.8,10.51C117.72,50.85,73.45.73,50.08,24.1,18.9,51.38,28.71,121.55,33.6,147.34a147,147,0,0,0-15.6,67c0,94.71,31.06,203.27,182.36,203.27S382.72,309.07,382.72,214.36A147.52,147.52,0,0,0,368.81,150.77Z"/><path d="M64.73,18c23.94,0,55.53,36,66.83,49.85a223.93,223.93,0,0,1,68.8-10.51A222.9,222.9,0,0,1,272.62,69c12.55-15.1,42.28-47.72,65.08-47.72a20,20,0,0,1,14.65,6.1c31.24,27.33,21.33,97.72,16.46,123.39a147.52,147.52,0,0,1,13.91,63.59c0,94.71-31.06,203.27-182.36,203.27S18,309.07,18,214.36a147,147,0,0,1,15.6-67c-4.89-25.79-14.7-96,16.48-123.24A20,20,0,0,1,64.73,18m0-18h0A38,38,0,0,0,37.8,10.93c-17,15.19-26.29,40.33-27.47,74.73-.79,22.64,2.12,45,4.52,59.12A165.33,165.33,0,0,0,0,214.36c0,61.31,12.65,110.88,37.59,147.32,33.58,49.07,88.35,73.95,162.77,73.95s129.19-24.88,162.77-73.95c24.95-36.44,37.59-86,37.59-147.32a166.12,166.12,0,0,0-13.21-65.89c2.41-14.06,5.37-36.58,4.6-59.38C391,54.61,381.7,29.42,364.63,14.21A37.91,37.91,0,0,0,337.7,3.28c-14.47,0-30.18,7.34-48,22.46a243,243,0,0,0-23,22.56,250.48,250.48,0,0,0-129-1,255.56,255.56,0,0,0-23-23.14C96.08,7.9,79.73,0,64.74,0Z"/><path class="cls-2" d="M364.13,246.16c-42.63,6.5-78-71.53-91.76-53.47s-42.63,14.45-52.56,2.17-47.14-11.56-56.48-3.6-33.29,17.32-54.25,2.87-38.29,29.63-54.91,43.36c-7.51,6.2-21.94,4.28-35.52.32,5.11,91.76,42.55,179.82,181.71,179.82C337.41,417.63,375.8,333,381.82,242A109.37,109.37,0,0,1,364.13,246.16Z"/><path d="M191,262.39a2.52,2.52,0,0,1-1.77-.74c-.73-.74-.74-1.4-.74-2.71-.71-14.81-8.11-19.25-8.19-19.29A2.5,2.5,0,0,1,181.5,235h15.23a2.5,2.5,0,0,1,.55,4.93c-1.54.35-3.79,7.28-3.84,18.92v.09c0,1.24,0,1.95-.71,2.71a2.57,2.57,0,0,1-1.78.75ZM187.54,240a26.34,26.34,0,0,1,2.36,3.91,23,23,0,0,1,1.3-3.91Z"/><path class="cls-3" d="M217,219.42c0,10.78-11.65,26.74-26,26.74s-26-16-26-26.74,11.64-15.17,26-15.17S217,208.65,217,219.42Z"/><path d="M191,248.65c-16.27,0-28.51-17.73-28.51-29.23,0-11.23,10.39-17.67,28.51-17.67s28.51,6.44,28.51,17.67C219.46,230.92,207.22,248.65,191,248.65Zm0-41.9c-7.07,0-23.51,1.23-23.51,12.67,0,9.57,10.53,24.23,23.51,24.23s23.51-14.66,23.51-24.23C214.46,208,198,206.75,191,206.75Z"/><ellipse cx="204.49" cy="222.69" rx="6.14" ry="10.79" transform="translate(-83.57 314.5) rotate(-65.12)"/><path d="M208.66,232.38a18.83,18.83,0,0,1-7.81-1.85c-6.87-3.19-10.49-9-8.41-13.43,1.2-2.6,4.08-4.1,7.88-4.1a18.75,18.75,0,0,1,7.8,1.85,18.13,18.13,0,0,1,7.15,5.66c1.88,2.63,2.34,5.47,1.27,7.77C215.33,230.88,212.46,232.38,208.66,232.38ZM200.32,218c-1.7,0-3,.48-3.35,1.2-.61,1.32,1.47,4.7,6,6.79a13.84,13.84,0,0,0,5.7,1.39c1.69,0,3-.48,3.35-1.2s0-1.67-.81-2.77a13.27,13.27,0,0,0-5.18-4A14,14,0,0,0,200.32,218Z"/><path d="M181.13,218.5c1.32,3.12-.95,7.07-5.07,8.8s-8.53.62-9.85-2.51.95-7.07,5.07-8.8S179.81,215.37,181.13,218.5Z"/><path d="M172.14,230.62c-3.82,0-7-1.86-8.23-4.86a8,8,0,0,1,.63-7.14,12,12,0,0,1,5.77-4.94,12.74,12.74,0,0,1,4.89-1c3.82,0,7,1.86,8.23,4.86,1.85,4.39-1,9.81-6.4,12.08A12.78,12.78,0,0,1,172.14,230.62Zm3.06-13a7.66,7.66,0,0,0-2.95.62,7.08,7.08,0,0,0-3.38,2.83,3.15,3.15,0,0,0-.36,2.7c.47,1.11,1.86,1.8,3.63,1.8a7.57,7.57,0,0,0,2.94-.62c2.8-1.18,4.51-3.71,3.75-5.53C178.36,218.36,177,217.67,175.2,217.67Z"/><ellipse class="cls-2" cx="144.85" cy="138.5" rx="15.9" ry="24.2" transform="translate(-43.63 206.62) rotate(-63.59)"/><ellipse class="cls-2" cx="240.48" cy="138.5" rx="24.2" ry="15.9" transform="translate(-36.51 121.42) rotate(-26.41)"/><path class="cls-4" d="M73,117.55s18.06-29,27.45-30c0,0-26-32.83-30.34-40.78C70.07,46.74,37.55,59,73,117.55Z"/><path class="cls-4" d="M330.48,122.24s-18.06-29-27.45-30c0,0,26-32.84,30.34-40.79C333.37,51.43,365.89,63.72,330.48,122.24Z"/><path d="M159.84,193a7,7,0,0,1-6.08-3.52c-3.82-6.68-8.32-10.36-13.74-11.23-10-1.61-21.66,6.59-25.33,9.89a7,7,0,0,1-9.39-10.38c.73-.67,18.22-16.31,36.87-13.35,9.77,1.55,17.76,7.65,23.74,18.12A7,7,0,0,1,159.84,193Z"/><path d="M220,192.81a7,7,0,0,1-6.07-10.47c6-10.47,14-16.57,23.74-18.12,18.65-2.94,36.14,12.68,36.88,13.35A7,7,0,0,1,265.1,188h0c-3.67-3.3-15.37-11.49-25.32-9.89-5.43.87-9.93,4.55-13.74,11.22A7,7,0,0,1,220,192.81Z"/><path class="cls-5" d="M96.42,248.56S133.48,295,191,259c0,0,56.47,37.32,100.47-8.84,0,0,14.89,151.85-90.06,147.85S99.83,297.42,96.42,248.56Z"/><path d="M205.39,405.13c-1.41,0-2.85,0-4.29-.09-44.84-1.71-76.26-20.15-93.4-54.82C93.47,321.42,91.55,286.5,90.15,261c-.24-4.24-.46-8.25-.72-11.95a7,7,0,0,1,12.46-4.86c.16.2,17.72,21.52,46.07,21.52,12.71,0,25.92-4.24,39.27-12.6a7,7,0,0,1,7.58.09c.19.12,20.25,13.09,44.55,13.09,17.95,0,33.76-7,47-20.92a7,7,0,0,1,12,4.15c.35,3.5,7.95,86.19-31.53,129.74C251.28,396.42,230.61,405.13,205.39,405.13Zm-101-139.91c2.88,50.61,9.65,122.49,97.23,125.83,22.85.88,41.3-6.25,54.84-21.19,26.23-28.92,29-79.92,28.63-104.68a74.77,74.77,0,0,1-45.74,15.11c-22.07,0-40.61-8.78-48.38-13.1-14.4,8.31-28.85,12.52-43,12.52A74.24,74.24,0,0,1,104.4,265.22Z"/></g></svg>